HIERARCHY
ROOT Bip001_Pelvis
{
  OFFSET 34.4345 95.6767 -26.8758
  CHANNELS 6 Xposition Yposition Zposition Zrotation Xrotation Yrotation
  JOINT Bip001_Spine
  {
    OFFSET 1.4188e-005 10.2191 -0.0116013
    CHANNELS 3 Zrotation Xrotation Yrotation
    JOINT Bip001_L_Thigh
    {
      OFFSET 11.0458 -10.2192 0.0116197
      CHANNELS 3 Zrotation Xrotation Yrotation
      JOINT Bip001_L_Calf
      {
        OFFSET -0.707118 -44.0221 0.360014
        CHANNELS 3 Zrotation Xrotation Yrotation
        JOINT Bip001_L_Foot
        {
          OFFSET -0.651902 -40.5938 -3.56146
          CHANNELS 3 Zrotation Xrotation Yrotation
          JOINT Bip001_L_Toe0
          {
            OFFSET 0.0530839 -10.2181 13.1504
            CHANNELS 3 Zrotation Xrotation Yrotation
            End Site
            {
              OFFSET -1.02532e-005 0 7.55606
            }
          }
        }
      }
    }
    JOINT Bip001_R_Thigh
    {
      OFFSET -11.0458 -10.2191 0.0115893
      CHANNELS 3 Zrotation Xrotation Yrotation
      JOINT Bip001_R_Calf
      {
        OFFSET 0.706994 -44.0221 0.35984
        CHANNELS 3 Zrotation Xrotation Yrotation
        JOINT Bip001_R_Foot
        {
          OFFSET 0.651786 -40.5938 -3.5613
          CHANNELS 3 Zrotation Xrotation Yrotation
          JOINT Bip001_R_Toe0
          {
            OFFSET -0.0531479 -10.2181 13.1504
            CHANNELS 3 Zrotation Xrotation Yrotation
            End Site
            {
              OFFSET -1.02894e-005 0 7.55606
            }
          }
        }
      }
    }
    JOINT Bip001_Spine1
    {
      OFFSET 1.87041e-005 14.5736 1.08638
      CHANNELS 3 Zrotation Xrotation Yrotation
      JOINT Bip001_Spine2
      {
        OFFSET 2.24614e-005 14.5058 -1.69078
        CHANNELS 3 Zrotation Xrotation Yrotation
        JOINT Bip001_Neck
        {
          OFFSET 2.20278e-005 15.3945 -0.489414
          CHANNELS 3 Zrotation Xrotation Yrotation
          JOINT Bip001_L_Clavicle
          {
            OFFSET 6.06036 -0.000579998 0.00836775
            CHANNELS 3 Zrotation Xrotation Yrotation
            JOINT Bip001_L_UpperArm
            {
              OFFSET 11.5509 -0.0600302 0.00193952
              CHANNELS 3 Zrotation Xrotation Yrotation
              JOINT Bip001_L_Forearm
              {
                OFFSET 25.9523 0.0806089 -2.15551
                CHANNELS 3 Zrotation Xrotation Yrotation
                JOINT Bip001_L_Hand
                {
                  OFFSET 32.2475 0.153767 1.63968
                  CHANNELS 3 Zrotation Xrotation Yrotation
                  JOINT Bip001_L_Finger0
                  {
                    OFFSET 6.04639 -2.20976 5.90322
                    CHANNELS 3 Zrotation Xrotation Yrotation
                    End Site
                    {
                      OFFSET 4.22375 -1.43895 0.606485
                    }
                  }
                  JOINT Bip001_L_Finger1
                  {
                    OFFSET 11.0826 -0.704819 -0.198153
                    CHANNELS 3 Zrotation Xrotation Yrotation
                    End Site
                    {
                      OFFSET 6.20027 -0.397518 -0.0787166
                    }
                  }
                }
              }
            }
          }
          JOINT Bip001_R_Clavicle
          {
            OFFSET -6.06037 -0.000563197 0.00835105
            CHANNELS 3 Zrotation Xrotation Yrotation
            JOINT Bip001_R_UpperArm
            {
              OFFSET -11.5509 -0.0599978 0.00190698
              CHANNELS 3 Zrotation Xrotation Yrotation
              JOINT Bip001_R_Forearm
              {
                OFFSET -25.9523 0.0806822 -2.15589
                CHANNELS 3 Zrotation Xrotation Yrotation
                JOINT Bip001_R_Hand
                {
                  OFFSET -32.2475 0.153859 1.63989
                  CHANNELS 3 Zrotation Xrotation Yrotation
                  JOINT Bip001_R_Finger0
                  {
                    OFFSET -6.04641 -2.20976 5.90317
                    CHANNELS 3 Zrotation Xrotation Yrotation
                    End Site
                    {
                      OFFSET -4.22376 -1.43895 0.60647
                    }
                  }
                  JOINT Bip001_R_Finger1
                  {
                    OFFSET -11.0826 -0.704794 -0.198182
                    CHANNELS 3 Zrotation Xrotation Yrotation
                    End Site
                    {
                      OFFSET -6.20028 -0.397504 -0.0787333
                    }
                  }
                }
              }
            }
          }
          JOINT Bip001_Head
          {
            OFFSET 1.09673e-005 11.2744 2.05948
            CHANNELS 3 Zrotation Xrotation Yrotation
            End Site
            {
              OFFSET 2.89576e-005 20.8808 -2.77728e-005
            }
          }
        }
      }
    }
  }
}
MOTION
Frames:	8
Frame Time:	0.04
32.4092 95.7886 -30.5491 0.142435 -1.24666 -7.36562 0.18666 2.31022 -0.594115 5.10613 0.59208 15.3427 0.609257 6.12526 0.97103 0.234711 -3.96364 0.00809472 0.965893 -5.00142 -0.187686 -4.2676 -4.79489 0.100529 0.632448 11.3988 0.101514 -4.6812 -9.04771 2.63 2.04859 -7.1133 2.29915 0.396009 4.6184 -1.19671 0.39412 4.61841 -1.19697 2.44659 -2.62417 1.70638 -25.1779 5.92204 -6.59489 -48.186 36.8459 -2.9918 15.34 -4.71055 -36.2824 11.7307 -0.4884 -7.97333 -9.54166e-015 -3.18055e-015 4.77083e-015 -9.54166e-015 -1.59028e-015 6.36111e-015 23.6944 8.85741 15.961 66.5616 29.3474 -13.4041 -17.5501 17.14 8.18635 17.8851 -5.23635 4.61094 3.18055e-015 3.18055e-015 -0 4.77083e-015 3.18056e-015 -1.59028e-015 -2.48182 -2.88639 2.83502 
32.3947 95.7685 -30.5571 -0.0050782 -1.36353 -7.21644 0.18943 2.3672 -0.731434 5.34089 0.363951 15.092 0.535622 6.71562 1.22825 0.418272 -4.0933 0.00809601 1.10791 -4.91963 -0.351935 -4.07442 -4.77132 0.441702 0.63422 11.5233 0.0915636 -4.89128 -9.01676 2.2903 2.09126 -7.24375 2.33788 0.409645 4.73177 -1.4726 0.409647 4.73179 -1.4726 2.78314 -2.36477 2.01461 -25.4215 5.74816 -6.73864 -48.9971 38.6337 -1.506 16.9749 -2.75127 -35.8615 10.4212 -0.156588 -7.94156 -3.18055e-015 -3.18055e-015 -4.77083e-015 -6.36111e-015 -4.77083e-015 -0 23.1375 8.18076 14.8932 66.3062 25.7944 -12.8451 -19.6569 17.6526 9.7054 16.5434 -4.91782 5.30289 1.59028e-015 -3.18055e-015 -1.59028e-015 -8.82782e-032 -3.18056e-015 -1.59028e-015 -2.8963 -3.57611 3.30867 
32.3973 95.7588 -30.4813 -0.0322836 -1.53112 -7.04412 0.171672 2.41691 -0.930381 5.30613 0.536269 14.9843 0.561903 6.61167 1.26366 0.860053 -3.79565 0.0041837 1.25247 -5.35181 -0.415413 -3.99177 -4.62395 0.786198 0.607472 11.5964 0.0366091 -5.0139 -9.03012 2.05662 2.1276 -7.35031 2.36482 0.390177 4.83066 -1.87084 0.386575 4.83066 -1.87098 3.07828 -1.69687 2.48726 -25.7811 5.27469 -7.11987 -49.7913 40.451 0.249154 17.6594 -0.959439 -34.8287 9.81067 0.0809561 -7.32969 3.18055e-015 -3.18055e-015 -1.59028e-015 6.36111e-015 -4.77083e-015 -0 22.922 7.24625 14.2249 65.5881 23.0141 -12.3241 -21.1579 15.4272 11.3389 12.7054 -5.74789 6.11415 -1.59028e-015 0 -0 -2.38542e-015 -3.18056e-015 -0 -3.42798 -4.49412 3.96246 
32.3586 95.7684 -30.3716 -0.16024 -1.55871 -6.87941 0.202591 2.42855 -1.10123 5.41758 0.695622 15.0016 0.50771 6.4551 1.19624 1.09348 -3.64316 0.00148137 1.31734 -5.45943 -0.476413 -3.82527 -4.31065 1.14718 0.586438 11.2026 -0.0385238 -5.08819 -8.89371 1.81103 2.13471 -7.3724 2.36722 0.453123 4.85403 -2.21515 0.453218 4.85406 -2.21465 2.92441 -1.63114 2.84009 -25.8081 5.28866 -7.11784 -51.0005 43.0135 2.31941 17.9624 -0.866745 -33.4259 7.98911 0.978073 -5.87142 -9.54166e-015 -3.18055e-015 -0 -3.18055e-015 -4.77083e-015 -0 22.9318 6.95336 13.7311 65.4982 21.4113 -12.3142 -22.6375 12.9157 13.1617 6.7156 -7.83145 6.24176 -6.95746e-016 -1.59028e-014 -5.96354e-016 -9.93923e-017 -1.59028e-014 -3.97569e-016 -3.4581 -4.58303 4.26638 
32.3192 95.7683 -30.2281 -0.317218 -1.63306 -6.9497 0.238367 2.44956 -1.13926 5.60711 0.803984 15.3112 0.450657 6.66955 0.984708 0.900064 -3.95067 -0.00112241 1.17026 -5.29475 -0.352056 -3.68061 -3.99628 1.28554 0.545958 10.8783 -0.011473 -5.09392 -8.81548 1.78387 2.14121 -7.38851 2.37375 0.525217 4.89388 -2.29345 0.5257 4.89387 -2.29328 2.80208 -1.74358 3.17914 -25.6321 5.51815 -7.35023 -52.4099 44.7655 4.09864 19.0543 1.65189 -31.3973 6.84998 1.30542 -4.72969 3.18055e-015 1.59028e-015 -0 0 3.18056e-015 -0 22.6843 6.70422 12.8782 65.0479 18.9096 -11.7903 -23.8452 9.43293 15.7239 1.14139 -7.9622 6.1465 -1.59028e-015 3.18055e-015 7.95139e-016 0 3.18056e-015 -0 -3.5183 -4.23214 4.58169 
32.2691 95.7415 -30.1787 -0.584212 -1.76416 -6.69492 0.308253 2.46972 -1.15895 6.05383 0.549064 14.5995 0.141701 7.5463 1.38661 1.06224 -4.32986 -0.00324241 1.16514 -5.33569 -0.28886 -3.44672 -3.66357 1.12653 0.508625 10.6665 -0.0426919 -5.14341 -8.7431 1.74293 2.17601 -7.4938 2.40335 0.666527 4.93265 -2.33622 0.666899 4.93264 -2.33529 2.59226 -1.78455 3.52648 -25.3445 5.65656 -7.54664 -53.5683 46.1476 5.86561 20.2222 4.47738 -30.2613 4.43385 1.78784 -3.89265 -2.20695e-032 -7.95139e-016 -1.59028e-015 6.36111e-015 0 -1.59028e-015 22.5525 6.47913 12.3321 64.2033 14.689 -12.0132 -26.8405 8.18054 20.2931 -2.94836 -6.62324 5.46094 -0 0 1.59028e-015 -0 0 1.59028e-015 -3.6319 -3.98239 4.88918 
32.2555 95.6897 -30.147 -0.818986 -2.01942 -6.35641 0.36046 2.52935 -1.10057 6.46672 0.203555 14.1723 -0.135146 8.67266 1.2839 1.54396 -4.68752 -0.00449016 1.16284 -5.47311 -0.270975 -3.27301 -3.33744 1.26966 0.574537 10.6235 -0.127647 -5.39999 -8.75098 1.29102 2.23793 -7.68688 2.4677 0.770662 5.05124 -2.22029 0.770662 5.05125 -2.22029 2.30149 -2.1536 3.90731 -24.7553 6.07133 -7.64754 -54.6954 47.0951 7.73423 21.4822 6.62871 -30.2498 2.48104 2.17007 -3.35756 3.18055e-015 1.59028e-015 -1.59028e-015 3.18055e-015 7.95139e-016 -1.39149e-015 22.7367 6.55285 11.5886 62.2102 7.76026 -13.1403 -34.2624 13.1261 28.0484 -6.11481 -7.21874 7.7407 -1.59028e-015 0 -3.18055e-015 1.76556e-031 3.18056e-015 -3.18055e-015 -3.76577 -3.41032 5.20958 
32.3742 95.5519 -30.1416 -0.804497 -2.15314 -5.69011 0.340121 2.536 -1.04393 6.67719 -0.571 14.9509 -0.154445 10.2689 -0.475389 2.54026 -5.03955 -0.00453287 1.2515 -5.92899 -0.233565 -3.36042 -3.51022 -0.0470318 0.400586 11.5317 -0.0765852 -5.42994 -9.34336 1.77806 2.32117 -7.9883 2.61722 0.728487 5.06537 -2.10336 0.727905 5.0655 -2.10269 1.88391 -2.08446 4.24573 -24.2343 6.03001 -7.71217 -55.1659 47.2157 9.90681 21.9504 7.20308 -31.4805 1.99981 2.23906 -2.79284 3.18055e-015 0 -0 3.18055e-015 0 -3.97569e-016 22.8658 6.16516 10.906 58.0623 -1.73221 -15.1305 -42.0167 16.9289 40.2381 -13.6445 -8.02899 9.56361 -4.77083e-015 9.54166e-015 6.36111e-015 -3.18055e-015 6.36111e-015 9.54166e-015 -4.01916 -3.27137 5.47993 
